<?xml version="1.0" encoding="utf-8" standalone="no"?>
<svg version="1.1" viewBox="0 0 64 64" xmlns="http://www.w3.org/2000/svg">
  <rect style="fill:none;opacity:0" width="64" height="64"/>
  <g style="fill:none;stroke:#ffffff;stroke-linecap:round;stroke-linejoin:round">
    <path style="stroke-width:4;stroke-opacity:0.5" d="m 26.69,15.26 c -1.82,0 -4.2,1.01 -5.41,2.29 l -11.18,11.91 c -1.32,1.41 -1.32,3.69 0,5.08 l 11.18,11.9 c 1.21,1.29 3.59,2.29 5.41,2.29 h 27.6 c 2.04,0 3.69,-1.56 3.69,-3.49 v -26.5 c 0,-1.92 -1.65,-3.49 -3.69,-3.49 z"/>
    <g style="stroke-width:5">
      <path d="m 27.03,21.52 6.65,5.92 c 1.54,1.37 2.31,3.23 2.32,4.7 0.02,1.68 -0.95,3.75 -2.64,5.26 l -5.68,5.07"/>
      <path d="m 50.97,21.52 -6.65,5.92 c -1.54,1.37 -2.31,3.23 -2.32,4.7 -0.02,1.68 0.95,3.75 2.64,5.26 l 5.68,5.07"/>
    </g>
  </g>
</svg>
