<?xml version="1.0" encoding="utf-8" standalone="no"?>
<svg version="1.1" width="130" height="100" xmlns="http://www.w3.org/2000/svg">
  <defs>
    <filter id="blur" style="color-interpolation-filters:sRGB" x="-0.041699969" y="-0.057091203" width="1.0833999" height="1.1141824">
      <feGaussianBlur stdDeviation="5"/>
    </filter>
  </defs>
  <path style="fill:#000000;fill-opacity:0.17;filter:url(#blur)" transform="matrix(0.38502179,0,0,-0.38445671,-49.417722,182.18915)" d="m 399.74,225.73 h -52.21 c -11.41,54.69 -29.26,114.46 -37.3,166.49 -12.44,-63.39 -26.77,-120.16 -37.59,-166.49 h -52.21 l -54.15,210.19 h 44.6 c 12.54,-56.17 25.52,-112.24 37.3,-168.57 12.18,61.2 27.02,122.2 37.89,168.57 h 49.23 c 13.85,-54.94 29.09,-121.01 37.15,-168.57 12.65,56.12 24.81,112.35 37,168.57 h 44.6 z"/>
  <path style="fill:#19cd07" d="M 96.18,91.31 H 84.37 C 81.73,91.27 80.01,89.79 79.37,87.2 75.02,67.32 68.82,46.01 65.93,27.3 61.85,47.91 56.92,68.17 52.46,87.01 c -0.76,3.21 -2.23,4.22 -5.18,4.3 H 35.77 c -2.95,-0.07 -4.7,-1.73 -5.69,-4.92 L 11.41,14.04 c -0.54,-1.92 0.37,-3.54 2.27,-3.54 h 9.9 c 2.54,0.05 4.33,1.03 4.86,3.41 4.59,20.45 9.3,40.88 13.6,61.4 4.36,-21.87 9.61,-43.68 13.68,-60.96 0.6,-2.51 2.06,-3.78 4.22,-3.85 h 11.55 c 2.77,0 4.26,0.89 4.93,3.32 5.1,20.42 10.53,44.15 13.47,61.49 4.6,-20.38 9.03,-40.79 13.46,-61.2 0.46,-2.35 1.45,-3.62 3.89,-3.61 h 9.8 c 3.49,0 3.66,2.35 2.88,5.35 l -18.3,70.74 c -0.84,3.04 -1.51,4.63 -5.43,4.72 z"/>
</svg>
