<?xml version="1.0" encoding="UTF-8" standalone="no"?>
<svg
    xmlns="http://www.w3.org/2000/svg"
    width="130"
    height="100"
    version="1.1">
  <defs>
    <filter
        style="color-interpolation-filters:sRGB"
        id="filter22778"
        x="-0.041530337"
        y="-0.056857318"
        width="1.0830607"
        height="1.1137146">
      <feGaussianBlur
          stdDeviation="4.9796333"
          id="feGaussianBlur22780"/>
    </filter>
  </defs>
  <g
      transform="matrix(3.7795334,0,0,3.7795334,-1.982001e-4,-1.4957995e-4)">
    <path
        style="fill:#000000;fill-opacity:0.16862697;stroke:none;filter:url(#filter22778)"
        d="m 399.74095,225.7314 h -52.213 C 336.11859,280.4178 318.26888,340.1857 310.23293,392.21603 297.79219,328.83489 283.45651,272.06229 272.63955,225.73112 l -52.21304,0 -54.15238,210.19465 h 44.60485 c 12.54061,-56.16906 25.51606,-112.23923 37.29502,-168.57343 12.18277,61.203 27.02457,122.2 37.89175,168.57343 h 49.22943 c 13.8495,-54.94332 29.09046,-121.01091 37.14585,-168.57343 12.65155,56.12 24.80524,112.34946 37,168.57343 h 44.60486 z"
        transform="matrix(0.10187019,0,0,-0.10172068,-13.075033,48.204179)"/>
    <path
        style="fill:#19cd07;fill-opacity:1;stroke:none"
        d="M 25.44838,24.158493 H 22.323281 C 21.62572,24.148249 21.168434,23.757751 21,23.071491 19.848342,17.811528 18.208316,12.173318 17.442713,7.22354 c -1.078118,5.451893 -2.383347,10.812186 -3.561767,15.798166 -0.2,0.848421 -0.590695,1.117816 -1.369825,1.136787 H 9.4652597 C 8.6853293,24.14 8.2211824,23.7 7.9585096,22.857598 L 3.0192355,3.7138722 C 2.8752611,3.2055077 3.117455,2.7769638 3.6205921,2.777353 h 2.6177171 c 0.6718705,0.014342 1.146106,0.2731643 1.2852916,0.9022226 1.2142483,5.41188 2.4603978,10.8164884 3.5971582,16.2451694 1.153673,-5.787239 2.541419,-11.5564271 3.6204,-16.1293312 0.159179,-0.664154 0.546172,-1 1.116438,-1.01806 h 3.055734 c 0.733463,0 1.126052,0.2345857 1.303255,0.8792353 1.349322,5.4023949 2.785279,11.6812587 3.563279,16.2681567 1.217147,-5.391127 2.389063,-10.7921695 3.561698,-16.1933147 0.122062,-0.621232 0.383085,-0.9588714 1.02812,-0.9540773 h 2.593687 c 0.923168,0 0.967156,0.6208632 0.762832,1.4163032 L 26.883964,22.909863 c -0.221038,0.803553 -0.398939,1.225131 -1.435584,1.24863 z"/>
  </g>
</svg>
