<?xml version="1.0" encoding="UTF-8" standalone="no"?>
<svg
    xmlns:svg="http://www.w3.org/2000/svg"
    xmlns="http://www.w3.org/2000/svg"
    xmlns:sodipodi="http://sodipodi.sourceforge.net/DTD/sodipodi-0.dtd"
    xmlns:inkscape="http://www.inkscape.org/namespaces/inkscape"
    version="1.1"
    width="64"
    height="64"
    viewBox="0 0 64 64"
    sodipodi:docname="settings.svg">
  <rect
      style="opacity:0;fill:#ffffff"
      width="64"
      height="64"/>
  <g>
    <path
        style="opacity:0.9;fill:none;stroke:#ffffff;stroke-width:1;stroke-miterlimit:4;stroke-dasharray:none"
        d="m 27.366031,16.165171 c -0.235613,-0.0019 -0.474609,0.04861 -0.705501,0.144283 l -1.98823,0.817602 c -0.894319,0.370903 -1.349046,1.47489 -0.978081,2.372648 l 0.46499,1.122199 c 0.119037,0.28677 0.113393,0.592264 0,0.865696 -0.07081,0.171344 -0.184842,0.326271 -0.336717,0.448879 -0.690622,0.559689 -1.329164,1.199663 -1.892025,1.891706 -0.318631,0.39245 -0.863919,0.52955 -1.330832,0.33666 L 19.49328,23.699933 c -0.924077,-0.382701 -1.990282,0.05348 -2.373048,0.977916 l -0.81774,1.987895 c -0.382767,0.923922 0.05349,1.989946 0.978081,2.372649 l 1.122388,0.46491 c 0.466913,0.193403 0.741803,0.667548 0.689467,1.170293 -0.09184,0.886985 -0.09287,1.776793 0,2.661213 0.05234,0.502745 -0.223067,0.976378 -0.689467,1.170294 l -1.122388,0.46491 c -0.893806,0.37039 -1.348533,1.475916 -0.978081,2.372649 l 0.81774,1.987894 c 0.382766,0.92341 1.448458,1.360105 2.373048,0.977916 l 1.122389,-0.46491 c 0.466913,-0.193404 0.99668,-0.05682 1.314798,0.336659 0.559782,0.690505 1.199351,1.329453 1.892025,1.891706 0.392002,0.318577 0.530152,0.847741 0.336717,1.314575 l -0.46499,1.122199 c -0.382766,0.923922 0.05349,1.989947 0.978081,2.372649 l 1.98823,0.817601 c 0.925105,0.382189 1.990283,-0.05399 2.37305,-0.977915 l 0.464989,-1.122199 c 0.192923,-0.466835 0.667661,-0.741677 1.170491,-0.68935 0.887136,0.09234 1.777093,0.09234 2.661663,0 0.50283,-0.05284 0.977055,0.222515 1.17049,0.68935 l 0.46499,1.122199 c 0.382253,0.922383 1.449484,1.360617 2.373049,0.977915 l 1.988231,-0.817601 c 0.895345,-0.371416 1.348533,-1.475403 0.978081,-2.372649 l -0.46499,-1.122199 c -0.193436,-0.467347 -0.05682,-0.996512 0.336717,-1.314575 0.690621,-0.559688 1.329163,-1.199149 1.892025,-1.891706 0.31863,-0.392449 0.847885,-0.52955 1.314798,-0.336659 l 1.122388,0.46491 c 0.923565,0.382702 1.990282,-0.05348 2.373049,-0.977916 L 47.69729,37.342662 C 48.080571,36.41874 47.6438,35.352715 46.71921,34.970013 l -1.122388,-0.46491 c -0.466914,-0.193403 -0.741803,-0.667549 -0.689467,-1.170294 0.09236,-0.886985 0.09236,-1.776792 0,-2.661213 -0.05388,-0.502745 0.22204,-0.976377 0.689467,-1.170293 l 1.122388,-0.46491 c 0.893293,-0.369877 1.348533,-1.475916 0.97808,-2.372649 l -0.817739,-1.987895 c -0.382767,-0.922896 -1.448458,-1.360104 -2.373049,-0.977916 l -1.122388,0.464911 c -0.466913,0.193403 -0.996681,0.0563 -1.314798,-0.33666 -0.560296,-0.690504 -1.199865,-1.329965 -1.892025,-1.891706 -0.392003,-0.318576 -0.530153,-0.847741 -0.336717,-1.314575 l 0.46499,-1.122199 c 0.382766,-0.923922 -0.05349,-1.989946 -0.978081,-2.372648 l -1.988231,-0.817602 c -0.924078,-0.382702 -1.990283,0.05399 -2.373049,0.977916 l -0.46499,1.122199 c -0.192922,0.466834 -0.66766,0.741677 -1.17049,0.68935 -0.886623,-0.09234 -1.777606,-0.09234 -2.661663,0 -0.50283,0.05284 -0.977055,-0.222516 -1.170491,-0.68935 L 29.03358,17.28737 c -0.28669,-0.691787 -0.960709,-1.116475 -1.667549,-1.122199 z"
        inkscape:connector-curvature="0"
        sodipodi:nodetypes="sccccccccccccscccccccsccscccccccsccccccccccccscccccccsccscccccccscs"/>
    <circle
        cy="32"
        cx="32"
        style="fill:none;stroke:#ffffff;stroke-width:2;stroke-miterlimit:4;stroke-dasharray:none;stroke-opacity:0.5"
        r="9.585"/>
  </g>
</svg>
