<?xml version="1.0" encoding="UTF-8" standalone="no"?>
<svg
   xmlns:svg="http://www.w3.org/2000/svg"
   xmlns="http://www.w3.org/2000/svg"
   xmlns:sodipodi="http://sodipodi.sourceforge.net/DTD/sodipodi-0.dtd"
   xmlns:inkscape="http://www.inkscape.org/namespaces/inkscape"
   version="1.1"
   x="0"
   y="0"
   width="64"
   height="64"
   viewBox="0 0 64 64"
   style="enable-background:new 0 0 64 64;"
   xml:space="preserve"
   sodipodi:docname="backspace.svg"
   inkscape:version="0.92.5 (2060ec1f9f, 2020-04-08)">
  <rect
      style="opacity:0;fill:#ffffff"
      width="64"
      height="64"/>
  <path
      style="fill:#ffffff;opacity:0.6"
      d="m 23.490234,10 c -2.26,0 -5.204125,1.324625 -6.703125,3.015625 L 2.9257812,28.658203 c -1.633,1.843 -1.633,4.841594 0,6.683594 L 16.787109,50.984375 C 18.285109,52.676375 21.230234,54 23.490234,54 H 57.71875 c 2.526,0 4.581078,-2.053125 4.580078,-4.578125 V 14.580078 C 62.298828,12.054078 60.24375,10 57.71875,10 Z m 0.644532,3.818359 h 31.632812 c 1.315011,0 2.384766,1.052976 2.384766,2.345703 v 31.673829 c 0,1.292727 -1.069755,2.345703 -2.384766,2.345703 H 24.134766 c -1.568218,0 -3.768969,-0.976314 -4.808594,-2.13086 L 6.515625,33.832031 c -0.8945399,-0.993636 -0.8945399,-2.670426 0,-3.664062 L 19.326172,15.947266 c 1.039625,-1.153637 3.241301,-2.128907 4.808594,-2.128907 z"
      inkscape:connector-curvature="0"
      sodipodi:nodetypes="sccccsscsssssssssccccs"/>
  <g
      transform="translate(1.3740327)">
    <path
        sodipodi:nodetypes="zccsczcsscz"
        inkscape:connector-curvature="0"
        d="m 25.167788,20.167788 c -1.211738,1.192222 -0.01254,2.401523 -0.01254,2.401523 l 5.895532,5.895533 c 1.949,1.95 1.949,5.121312 0,7.070312 l -5.723913,5.723914 c 0,0 -0.935642,1.037522 0.165503,2.163838 1.101145,1.126315 2.214661,0.284123 2.214661,0.284123 l 6.757813,-6.757812 c 2.729,-2.729 2.729,-7.169438 0,-9.898438 l -6.757813,-6.757812 c 0,0 -1.327505,-1.317402 -2.539243,-0.125181 z"
        style="fill:#ffffff"/>
    <path
        sodipodi:nodetypes="zccsczcsscz"
        inkscape:connector-curvature="0"
        d="m 50.344162,20.3283 c 1.211776,1.192222 0.01254,2.401523 0.01254,2.401523 l -5.895717,5.895533 c -1.949062,1.949999 -1.949062,5.121311 0,7.070311 l 5.724092,5.723914 c 0,0 0.935672,1.037522 -0.165508,2.163838 -1.101179,1.126315 -2.21473,0.284123 -2.21473,0.284123 L 41.046814,37.10973 c -2.729085,-2.729 -2.729085,-7.169438 0,-9.898437 l 6.758026,-6.757812 c 0,0 1.327546,-1.317402 2.539322,-0.125181 z"
        style="fill:#ffffff"/>
  </g>
</svg>
