<?xml version="1.0" encoding="UTF-8" standalone="no"?>
<svg
    xmlns:svg="http://www.w3.org/2000/svg"
    xmlns="http://www.w3.org/2000/svg"
    xmlns:sodipodi="http://sodipodi.sourceforge.net/DTD/sodipodi-0.dtd"
    xmlns:inkscape="http://www.inkscape.org/namespaces/inkscape"
    version="1.1"
    x="0"
    y="0"
    width="64"
    height="64"
    viewBox="0 0 64 64"
    style="enable-background:new 0 0 64 64;"
    xml:space="preserve"
    sodipodi:docname="key-enter.svg"
    inkscape:version="0.92.5 (2060ec1f9f, 2020-04-08)">
  <rect
      style="opacity:0;fill:#ffffff"
      width="64"
      height="64"/>
  <path
      style="fill:#ffffff"
      d="m 42.91095,44.895166 c 0,2.475 1.4325,3.0675 3.183,1.317 l 10.0275,-10.0305 c 1.7505,-1.7505 1.749,-4.614 0,-6.3645 l -10.0335,-10.0305 c -1.7505,-1.7505 -3.1815,-1.1565 -3.1815,1.3185 z"
      inkscape:connector-curvature="0"/>
  <path
      style="fill:#ffffff;opacity:0.6"
      d="m 9.9679062,21.337891 c 2.0391138,-0.003 2.0004668,2.000223 2.0004668,2.000223 v 3.831808 c 0,2.077 2.29,3.830078 5,3.830078 h 29.748533 v 4 H 14.968373 c -3.86,0 -6.9997428,-2.615078 -6.9999998,-5.830078 l -4.67e-4,-5.831808 c 0,0 0.0089,-1.997273 2,-2.000223 z"
      inkscape:connector-curvature="0"
      sodipodi:nodetypes="scssccsscs"/>
</svg>
