<?xml version="1.0" encoding="utf-8" standalone="no"?>
<svg version="1.1" viewBox="0 0 64 64" xmlns="http://www.w3.org/2000/svg">
  <rect style="fill:#ffffff;opacity:0" width="64" height="64"/>
  <path style="fill:none;stroke:#ffffff;stroke-width:5;stroke-miterlimit:4;stroke-opacity:0.5" d="m 23.74,10.5 c -2.2,0 -5,1.295 -6.52,2.947 L 3.734,28.734 c -1.589,1.8 -1.589,4.732 0,6.532 L 17.22,50.553 c 1.457,1.654 4.321,2.947 6.52,2.947 h 33.3 c 2.458,0 4.457,-2 4.456,-4.474 L 61.5,14.976 C 61.5,12.507 59.498,10.5 57.042,10.5 z"/>
  <g style="fill:none;stroke:#ffffff;stroke-width:5;stroke-linecap:round;stroke-linejoin:round">
    <path d="m 27.027,21.524 6.648,5.92 c 1.537,1.369 2.307,3.226 2.325,4.7 0,1.679 -0.954,3.752 -2.643,5.26 l -5.685,5.075"/>
    <path d="m 50.973,21.524 -6.648,5.92 c -1.537,1.369 -2.307,3.226 -2.325,4.7 0,1.68 0.954,3.752 2.643,5.26 l 5.685,5.075"/>
  </g>
</svg>
