<?xml version="1.0" encoding="UTF-8" standalone="no"?>
<svg
   xmlns:svg="http://www.w3.org/2000/svg"
   xmlns="http://www.w3.org/2000/svg"
   xmlns:sodipodi="http://sodipodi.sourceforge.net/DTD/sodipodi-0.dtd"
   xmlns:inkscape="http://www.inkscape.org/namespaces/inkscape"
   version="1.1"
   x="0"
   y="0"
   width="64"
   height="64"
   viewBox="0 0 64 64"
   style="enable-background:new 0 0 64 64;"
   xml:space="preserve"
   sodipodi:docname="key-enter-right.svg"
   inkscape:version="0.92.5 (2060ec1f9f, 2020-04-08)">
  <rect
      style="opacity:0;fill:#ffffff"
      width="64"
      height="64"/>
  <path
      style="fill:#ffffff"
      d="m 22.490719,44.895166 c 0,2.475 -1.4325,3.0675 -3.183,1.317 L 9.2802188,36.181666 c -1.7505,-1.7505 -1.749,-4.614 0,-6.3645 l 10.0335002,-10.0305 c 1.7505,-1.7505 3.1815,-1.1565 3.1815,1.3185 z"
      inkscape:connector-curvature="0"/>
  <path
      style="opacity:0.6;fill:#ffffff"
      d="m 55.433763,21.337891 c -2.039114,-0.003 -2,2 -2,2 v 3.831808 c 0,2.077 -2.29,3.830078 -5,3.830078 H 18.684763 v 4 h 31.748533 c 3.86,0 6.999743,-2.615078 7,-5.830078 l 0,-5.831808 c 0,0 0,-2 -2,-2 z"
      inkscape:connector-curvature="0"
      sodipodi:nodetypes="scssccsscs"/>
</svg>
