<?xml version="1.0" encoding="utf-8" standalone="no"?>
<svg version="1.1" viewBox="0 0 64 64" xmlns="http://www.w3.org/2000/svg">
  <rect style="fill:#ffffff;opacity:0" width="64" height="64"/>
  <path style="fill:#d03436;stroke:#ffffff;stroke-width:1" d="M 24.646,32 12.143,19.496 c 0,0 -1.474,-1.468 0,-2.942 l 4.413,-4.413 c 1.468,-1.468 2.942,0 2.942,0 l 12.502,12.503 12.502,-12.503 c 0,0 1.473,-1.469 2.942,0 l 4.413,4.413 c 1.468,1.468 0,2.942 0,2.942 l -12.502,12.502 12.502,12.502 c 0,0 1.473,1.468 0,2.942 l -4.413,4.413 c -1.469,1.469 -2.942,0 -2.942,0 L 32,39.355 19.498,51.858 c 0,0 -1.471,1.471 -2.942,0 l -4.414,-4.414 c -1.474,-1.474 0,-2.942 0,-2.942 z"/>
</svg>
