<?xml version="1.0" encoding="UTF-8" standalone="no"?>
<svg
   xmlns:svg="http://www.w3.org/2000/svg"
   xmlns="http://www.w3.org/2000/svg"
   xmlns:sodipodi="http://sodipodi.sourceforge.net/DTD/sodipodi-0.dtd"
   xmlns:inkscape="http://www.inkscape.org/namespaces/inkscape"
   version="1.1"
   width="64"
   height="64"
   viewBox="0 0 64 64"
   xml:space="preserve"
   inkscape:version="0.92.5 (2060ec1f9f, 2020-04-08)"
   sodipodi:docname="settings.svg">
  <g
      transform="matrix(0.32837649,0,0,0.3281127,15.593866,20.201685)">
    <path
        style="opacity:0.9;fill:none;stroke:#ffffff;stroke-width:3.0465089;stroke-miterlimit:4;stroke-dasharray:none"
        d="m 35.849599,-12.302217 c -0.717509,-0.0058 -1.445321,0.148141 -2.148452,0.439736 l -6.054727,2.4918314 c -2.723457,1.1304126 -4.108231,4.4950703 -2.978536,7.2311996 l 1.416026,3.420162 c 0.362503,0.873998 0.345314,1.8050639 0,2.6384107 -0.215627,0.5222098 -0.562895,0.9943875 -1.025398,1.3680648 -2.10314,1.7057813 -4.047683,3.6562508 -5.761757,5.7654145 -0.97032,1.196082 -2.630878,1.613927 -4.052763,1.026051 L 11.874828,10.661728 C 9.060748,9.4953548 5.8138514,10.824722 4.6482184,13.642154 l -2.490251,6.058574 c -1.16563289,2.815868 0.1628916,6.064826 2.9785356,7.2312 l 3.4179916,1.416922 c 1.4218846,0.589442 2.2590004,2.034508 2.0996234,3.566742 -0.279689,2.703295 -0.282815,5.41519 0,8.110668 0.159377,1.532233 -0.6793013,2.975738 -2.0996234,3.566742 L 5.136503,45.009926 c -2.7218933,1.128849 -4.1066682,4.498197 -2.9785356,7.231199 l 2.490251,6.058573 c 1.165633,2.814305 4.4109672,4.145236 7.2266096,2.980426 l 3.417994,-1.416923 c 1.421884,-0.589442 3.035175,-0.173158 4.003933,1.026049 1.704698,2.104474 3.652368,4.051817 5.761757,5.765415 1.193757,0.970936 1.614462,2.583688 1.025398,4.006475 l -1.416026,3.420162 c -1.165633,2.815869 0.16289,6.064828 2.978536,7.2312 l 6.054727,2.491832 c 2.817207,1.16481 6.060979,-0.164558 7.226612,-2.980426 l 1.416024,-3.420161 c 0.587505,-1.422789 2.033218,-2.260435 3.564478,-2.100957 2.701582,0.281431 5.411756,0.281431 8.105524,0 1.531259,-0.161042 2.97541,0.678168 3.564476,2.100957 l 1.416026,3.420161 c 1.164069,2.811177 4.414092,4.146799 7.226611,2.980426 l 6.054729,-2.491832 c 2.726581,-1.131976 4.106667,-4.496634 2.978535,-7.2312 L 73.838136,70.66114 c -0.589067,-1.42435 -0.173048,-3.037103 1.025399,-4.006475 2.103138,-1.705781 4.047682,-3.654687 5.761756,-5.765415 0.97032,-1.196081 2.58205,-1.613928 4.003933,-1.026049 l 3.417992,1.416923 c 2.81252,1.166374 6.060978,-0.162993 7.226611,-2.980426 l 2.49025,-6.058573 c 1.167197,-2.815868 -0.16289,-6.064826 -2.978535,-7.231199 l -3.417991,-1.416924 c -1.421885,-0.58944 -2.259,-2.034509 -2.099624,-3.566742 0.281253,-2.703295 0.281253,-5.41519 0,-8.110668 -0.164065,-1.532234 0.676178,-2.975737 2.099624,-3.566742 l 3.417991,-1.416922 c 2.720332,-1.127286 4.106669,-4.498197 2.978535,-7.2312 l -2.49025,-6.058574 C 94.108194,10.829413 90.86286,9.4969183 88.047216,10.661728 l -3.417992,1.416925 C 83.207341,12.668092 81.594049,12.250247 80.625291,11.052602 78.919029,8.9481288 76.971361,6.9992228 74.863535,5.2871875 73.669775,4.3162523 73.249069,2.7034993 73.838136,1.280712 l 1.416026,-3.420162 c 1.165632,-2.815868 -0.162893,-6.0648264 -2.978535,-7.2311996 l -6.054729,-2.4918314 c -2.814082,-1.166374 -6.060979,0.164558 -7.226611,2.9804262 l -1.416026,3.4201619 c -0.587503,1.4227873 -2.033217,2.2604339 -3.564476,2.1009565 -2.700019,-0.2814304 -5.413317,-0.2814304 -8.105524,0 -1.53126,0.1610408 -2.97541,-0.6781692 -3.564478,-2.1009565 l -1.416024,-3.4201619 c -0.873053,-2.1083832 -2.925631,-3.4027192 -5.07816,-3.4201622 z"
        inkscape:connector-curvature="0"
        sodipodi:nodetypes="sccccccccccccscccccccsccscccccccsccccccccccccscccccccsccscccccccscs"/>
  </g>
  <ellipse
      style="fill:none;stroke:#ffffff;stroke-width:2;stroke-miterlimit:4;stroke-dasharray:none;stroke-opacity:0.5"
      cx="32"
      cy="32.000355"
      rx="9.5847445"
      ry="9.5850039"/>
</svg>
