<?xml version="1.0" encoding="utf-8" standalone="no"?>
<svg version="1.1" viewBox="0 0 64 64" xmlns="http://www.w3.org/2000/svg">
  <rect style="fill:#ffffff;opacity:0" width="64" height="64"/>
  <path style="opacity:0.9;fill:none;stroke:#ffffff;stroke-width:1" d="m 27.366,16.165 c -0.236,-0.002 -0.475,0.049 -0.706,0.144 l -1.988,0.818 c -0.894,0.371 -1.349,1.475 -0.978,2.373 l 0.465,1.122 c 0.119,0.287 0.113,0.592 0,0.866 -0.071,0.171 -0.185,0.326 -0.337,0.449 -0.691,0.56 -1.329,1.2 -1.892,1.892 -0.319,0.392 -0.864,0.53 -1.331,0.337 L 19.493,23.7 c -0.924,-0.383 -1.99,0.053 -2.373,0.978 l -0.818,1.988 c -0.383,0.924 0.053,1.99 0.978,2.373 l 1.122,0.465 c 0.467,0.193 0.742,0.668 0.689,1.17 -0.092,0.887 -0.093,1.777 0,2.661 0.052,0.503 -0.223,0.976 -0.689,1.17 l -1.122,0.465 c -0.894,0.37 -1.349,1.476 -0.978,2.373 l 0.818,1.988 c 0.383,0.923 1.448,1.36 2.373,0.978 l 1.122,-0.465 c 0.467,-0.193 0.997,-0.057 1.315,0.337 0.56,0.691 1.199,1.329 1.892,1.892 0.392,0.319 0.53,0.848 0.337,1.315 l -0.465,1.122 c -0.383,0.924 0.053,1.99 0.978,2.373 l 1.988,0.818 c 0.925,0.382 1.99,-0.054 2.373,-0.978 l 0.465,-1.122 c 0.193,-0.467 0.668,-0.742 1.17,-0.689 0.887,0.092 1.777,0.092 2.662,0 0.503,-0.053 0.977,0.223 1.17,0.689 l 0.465,1.122 c 0.382,0.922 1.449,1.361 2.373,0.978 l 1.988,-0.818 c 0.895,-0.371 1.349,-1.475 0.978,-2.373 l -0.465,-1.122 c -0.193,-0.467 -0.057,-0.997 0.337,-1.315 0.691,-0.56 1.329,-1.199 1.892,-1.892 0.319,-0.392 0.848,-0.53 1.315,-0.337 l 1.122,0.465 c 0.924,0.383 1.99,-0.053 2.373,-0.978 L 47.697,37.343 C 48.081,36.419 47.644,35.353 46.719,34.97 l -1.122,-0.465 c -0.467,-0.193 -0.742,-0.668 -0.689,-1.17 0.092,-0.887 0.092,-1.777 0,-2.661 -0.054,-0.503 0.222,-0.976 0.689,-1.17 l 1.122,-0.465 c 0.893,-0.37 1.349,-1.476 0.978,-2.373 l -0.818,-1.988 c -0.383,-0.923 -1.448,-1.36 -2.373,-0.978 l -1.122,0.465 c -0.467,0.193 -0.997,0.056 -1.315,-0.337 -0.56,-0.691 -1.2,-1.33 -1.892,-1.892 -0.392,-0.319 -0.53,-0.848 -0.337,-1.315 l 0.465,-1.122 c 0.383,-0.924 -0.053,-1.99 -0.978,-2.373 l -1.988,-0.818 c -0.924,-0.383 -1.99,0.054 -2.373,0.978 l -0.465,1.122 c -0.193,0.467 -0.668,0.742 -1.17,0.689 -0.887,-0.092 -1.778,-0.092 -2.662,0 -0.503,0.053 -0.977,-0.223 -1.17,-0.689 L 29.034,17.287 c -0.287,-0.692 -0.961,-1.116 -1.668,-1.122 z"/>
  <circle style="fill:none;stroke:#ffffff;stroke-width:2;stroke-opacity:0.5" cy="32" cx="32" r="9.575"/>
</svg>
