<?xml version="1.0" encoding="utf-8" standalone="no"?>
<svg version="1.1" viewBox="0 0 64 64" xmlns="http://www.w3.org/2000/svg">
  <rect style="fill:none;opacity:0" width="64" height="64"/>
  <path style="opacity:0.9;fill:none;stroke:#ffffff;stroke-width:1" d="m 27.37,16.16 c -0.95,0.11 -1.82,0.6 -2.69,0.96 -0.89,0.37 -1.35,1.48 -0.98,2.37 l 0.47,1.12 c 0.12,0.29 0.11,0.59 0,0.87 -0.23,0.55 -0.92,0.73 -2.23,2.34 -0.32,0.39 -0.86,0.53 -1.33,0.34 L 19.49,23.7 c -0.92,-0.38 -2,0.05 -2.37,0.98 l -0.82,2 c -0.38,0.92 0.05,2 0.98,2.37 l 1.12,0.47 c 0.47,0.19 0.74,0.67 0.69,1.17 -0.09,0.89 -0.09,1.78 0,2.66 0.05,0.5 -0.22,0.98 -0.69,1.17 L 17.28,34.97 c -0.89,0.37 -1.35,1.48 -0.98,2.37 l 0.82,2 c 0.38,0.92 1.45,1.36 2.37,0.98 l 1.12,-0.47 c 0.47,-0.19 1,-0.06 1.31,0.34 0.56,0.69 1.2,1.33 1.89,1.89 0.39,0.32 0.53,0.85 0.34,1.31 l -0.47,1.12 c -0.38,0.92 0.05,2 0.98,2.37 l 2,0.82 c 0.93,0.38 2,-0.05 2.37,-0.98 l 0.47,-1.12 c 0.19,-0.47 0.67,-0.74 1.17,-0.69 0.89,0.09 1.78,0.09 2.66,0 0.5,-0.05 0.98,0.22 1.17,0.69 l 0.47,1.12 c 0.38,0.92 1.45,1.36 2.37,0.98 l 2,-0.82 c 0.9,-0.37 1.35,-1.48 0.98,-2.37 l -0.47,-1.12 c -0.19,-0.47 -0.06,-1 0.34,-1.31 0.69,-0.56 1.33,-1.2 1.89,-1.89 0.32,-0.39 0.85,-0.53 1.31,-0.34 l 1.12,0.47 c 0.92,0.38 2,-0.05 2.37,-0.98 l 0.82,-2 c 0.38,-0.92 -0.05,-2 -0.98,-2.37 l -1.12,-0.47 c -0.47,-0.19 -0.74,-0.67 -0.69,-1.17 0.09,-0.89 0.09,-1.78 0,-2.66 -0.05,-0.5 0.22,-0.98 0.69,-1.17 l 1.12,-0.47 c 0.89,-0.37 1.35,-1.48 0.98,-2.37 L 46.88,24.68 C 46.5,23.75 45.43,23.32 44.51,23.7 l -1.12,0.47 c -0.47,0.19 -1,0.06 -1.31,-0.34 -0.56,-0.69 -1.2,-1.33 -1.89,-1.89 -0.39,-0.32 -0.53,-0.85 -0.34,-1.31 l 0.47,-1.12 c 0.38,-0.92 -0.05,-2 -0.98,-2.37 l -2,-0.82 c -0.92,-0.38 -2,0.05 -2.37,0.98 l -0.47,1.12 c -0.19,0.47 -0.67,0.74 -1.17,0.69 -0.89,-0.09 -1.78,-0.09 -2.66,0 -0.5,0.05 -0.98,-0.22 -1.17,-0.69 l -0.47,-1.12 c -0.29,-0.69 -0.96,-1.12 -1.67,-1.12 z"/>
  <circle style="fill:none;stroke:#ffffff;stroke-width:2;stroke-opacity:0.5" cy="32" cx="32" r="9.5"/>
</svg>
