<?xml version="1.0" encoding="utf-8" standalone="no"?>
<svg version="1.1" viewBox="0 0 86 86" xmlns="http://www.w3.org/2000/svg">
  <defs>
    <linearGradient id="gradient" gradientUnits="userSpaceOnUse" x1="0.3" y1="85.4" x2="85.4" y2="0.3">
      <stop offset="0" style="stop-color:#6aaa64;stop-opacity:1"/>
      <stop offset="1" style="stop-color:#579551;stop-opacity:1"/>
    </linearGradient>
  </defs>
  <rect style="opacity:0;fill:#ffffff" width="86" height="86"/>
  <path style="fill:url(#gradient)" d="m 85.7,84.275 c 0,0.788 -0.637,1.425 -1.425,1.425 H 1.725 C 0.939,85.7 0.3,85.063 0.3,84.275 V 1.725 C 0.3,0.937 0.937,0.3 1.725,0.3 h 82.55 c 0.787,0 1.425,0.637 1.425,1.425 z"/>
  <path style="fill:#000000;fill-opacity:0.2" d="M 63.548,64.933 H 52.155 C 49.665,53 45.77,39.958 44.017,28.605 41.3,42.435 38.174,54.823 35.814,64.933 L 24.42,64.933 12.6,19.067 h 9.733 c 2.736,12.256 5.568,24.491 8.138,36.784 2.658,-13.355 5.897,-26.665 8.268,-36.784 h 10.742 c 3.022,11.989 6.348,26.405 8.105,36.784 2.761,-12.246 5.413,-24.515 8.073,-36.784 h 9.733 z"/>
  <path style="fill:#ffffff" d="M 62.548,65.933 H 51.154 C 48.665,54 44.77,40.958 43.016,29.605 40.3,43.435 37.173,55.823 34.813,65.933 H 23.42 L 11.6,20.07 h 9.733 c 2.736,12.256 5.568,24.491 8.138,36.784 2.658,-13.355 5.897,-26.665 8.268,-36.784 h 10.742 c 3.022,11.989 6.348,26.405 8.105,36.784 2.761,-12.246 5.413,-24.515 8.073,-36.784 h 9.733 z"/>
</svg>
