<?xml version="1.0" encoding="utf-8" standalone="no"?>
<svg version="1.1" viewBox="0 0 86 86" xmlns="http://www.w3.org/2000/svg">
  <defs>
    <linearGradient id="gradient" x1="0.3" y1="85.4" x2="85.4" y2="0.3" gradientUnits="userSpaceOnUse">
      <stop offset="0" style="stop-color:#6aaa64;stop-opacity:1"/>
      <stop offset="1" style="stop-color:#579551;stop-opacity:1"/>
    </linearGradient>
  </defs>
  <rect style="fill:none;opacity:0" width="86" height="86"/>
  <path style="fill:url(#gradient)" d="m 85.7,84.27 c 0,0.79 -0.64,1.43 -1.43,1.43 H 1.73 C 0.94,85.69 0.3,85.05 0.3,84.27 V 1.73 C 0.3,0.94 0.94,0.3 1.73,0.3 h 82.54 c 0.79,0 1.43,0.64 1.43,1.43 z"/>
  <path style="fill:#000000;fill-opacity:0.2" d="M 63.55,64.93 H 52.15 L 44.02,28.61 35.81,64.93 H 24.42 L 12.6,19.07 h 9.73 l 8.14,36.78 8.27,-36.78 h 10.74 l 8.11,36.78 8.07,-36.78 h 9.73 z"/>
  <path style="fill:#ffffff" d="M 62.55,65.93 H 51.15 L 43.02,29.61 34.81,65.93 H 23.42 L 11.6,20.07 h 9.73 l 8.14,36.78 8.27,-36.78 h 10.74 l 8.11,36.78 8.07,-36.78 h 9.73 z"/>
</svg>
